%TF.GenerationSoftware,KiCad,Pcbnew,(5.0.0)*%
%TF.CreationDate,2018-08-25T01:11:55+03:00*%
%TF.ProjectId,Macropad,4D6163726F7061642E6B696361645F70,rev?*%
%TF.SameCoordinates,Original*%
%TF.FileFunction,Paste,Bot*%
%TF.FilePolarity,Positive*%
%FSLAX46Y46*%
G04 Gerber Fmt 4.6, Leading zero omitted, Abs format (unit mm)*
G04 Created by KiCad (PCBNEW (5.0.0)) date 08/25/18 01:11:55*
%MOMM*%
%LPD*%
G01*
G04 APERTURE LIST*
%ADD10C,0.100000*%
%ADD11R,1.500000X1.250000*%
%ADD12R,2.000000X3.800000*%
%ADD13R,2.000000X1.500000*%
%ADD14R,1.800000X1.400000*%
G04 APERTURE END LIST*
D10*
X17780000Y-112395000D02*
X17780000Y-19685000D01*
X112395000Y-114300000D02*
X19685000Y-114300000D01*
X114300000Y-19685000D02*
X114300000Y-112395000D01*
X19685000Y-17780000D02*
X112395000Y-17780000D01*
X114300000Y-19685000D02*
G75*
G03X112395000Y-17780000I-1905000J0D01*
G01*
X112395000Y-114300000D02*
G75*
G03X114300000Y-112395000I0J1905000D01*
G01*
X17780000Y-112395000D02*
G75*
G03X19685000Y-114300000I1905000J0D01*
G01*
X19685000Y-17780000D02*
G75*
G03X17780000Y-19685000I0J-1905000D01*
G01*
D11*
X36215000Y-84455000D03*
X38715000Y-84455000D03*
X36215000Y-47625000D03*
X38715000Y-47625000D03*
X93365000Y-84455000D03*
X95865000Y-84455000D03*
X93365000Y-47625000D03*
X95865000Y-47625000D03*
D12*
X71780000Y-93980000D03*
D13*
X78080000Y-93980000D03*
X78080000Y-96280000D03*
X78080000Y-91680000D03*
D14*
X35065000Y-44830000D03*
X35065000Y-41530000D03*
X39865000Y-41530000D03*
X39865000Y-44830000D03*
X39738000Y-87250000D03*
X39738000Y-90550000D03*
X34938000Y-90550000D03*
X34938000Y-87250000D03*
X96888000Y-86996000D03*
X96888000Y-90296000D03*
X92088000Y-90296000D03*
X92088000Y-86996000D03*
X92088000Y-45084000D03*
X92088000Y-41784000D03*
X96888000Y-41784000D03*
X96888000Y-45084000D03*
M02*
