%TF.GenerationSoftware,KiCad,Pcbnew,(5.0.0)*%
%TF.CreationDate,2018-08-25T01:11:55+03:00*%
%TF.ProjectId,Macropad,4D6163726F7061642E6B696361645F70,rev?*%
%TF.SameCoordinates,Original*%
%TF.FileFunction,Legend,Top*%
%TF.FilePolarity,Positive*%
%FSLAX46Y46*%
G04 Gerber Fmt 4.6, Leading zero omitted, Abs format (unit mm)*
G04 Created by KiCad (PCBNEW (5.0.0)) date 08/25/18 01:11:55*
%MOMM*%
%LPD*%
G01*
G04 APERTURE LIST*
%ADD10C,0.100000*%
%ADD11C,0.150000*%
G04 APERTURE END LIST*
D10*
X17780000Y-112395000D02*
X17780000Y-19685000D01*
X112395000Y-114300000D02*
X19685000Y-114300000D01*
X114300000Y-19685000D02*
X114300000Y-112395000D01*
X19685000Y-17780000D02*
X112395000Y-17780000D01*
X114300000Y-19685000D02*
G75*
G03X112395000Y-17780000I-1905000J0D01*
G01*
X112395000Y-114300000D02*
G75*
G03X114300000Y-112395000I0J1905000D01*
G01*
X17780000Y-112395000D02*
G75*
G03X19685000Y-114300000I1905000J0D01*
G01*
X19685000Y-17780000D02*
G75*
G03X17780000Y-19685000I0J-1905000D01*
G01*
D11*
X26654285Y-31567380D02*
X26654285Y-30567380D01*
X26987619Y-31281666D01*
X27320952Y-30567380D01*
X27320952Y-31567380D01*
X27701904Y-30567380D02*
X28368571Y-31567380D01*
X28368571Y-30567380D02*
X27701904Y-31567380D01*
X29273333Y-31567380D02*
X28701904Y-31567380D01*
X28987619Y-31567380D02*
X28987619Y-30567380D01*
X28892380Y-30710238D01*
X28797142Y-30805476D01*
X28701904Y-30853095D01*
X45704285Y-31567380D02*
X45704285Y-30567380D01*
X46037619Y-31281666D01*
X46370952Y-30567380D01*
X46370952Y-31567380D01*
X46751904Y-30567380D02*
X47418571Y-31567380D01*
X47418571Y-30567380D02*
X46751904Y-31567380D01*
X47751904Y-30662619D02*
X47799523Y-30615000D01*
X47894761Y-30567380D01*
X48132857Y-30567380D01*
X48228095Y-30615000D01*
X48275714Y-30662619D01*
X48323333Y-30757857D01*
X48323333Y-30853095D01*
X48275714Y-30995952D01*
X47704285Y-31567380D01*
X48323333Y-31567380D01*
X64754285Y-31567380D02*
X64754285Y-30567380D01*
X65087619Y-31281666D01*
X65420952Y-30567380D01*
X65420952Y-31567380D01*
X65801904Y-30567380D02*
X66468571Y-31567380D01*
X66468571Y-30567380D02*
X65801904Y-31567380D01*
X66754285Y-30567380D02*
X67373333Y-30567380D01*
X67040000Y-30948333D01*
X67182857Y-30948333D01*
X67278095Y-30995952D01*
X67325714Y-31043571D01*
X67373333Y-31138809D01*
X67373333Y-31376904D01*
X67325714Y-31472142D01*
X67278095Y-31519761D01*
X67182857Y-31567380D01*
X66897142Y-31567380D01*
X66801904Y-31519761D01*
X66754285Y-31472142D01*
X83804285Y-31567380D02*
X83804285Y-30567380D01*
X84137619Y-31281666D01*
X84470952Y-30567380D01*
X84470952Y-31567380D01*
X84851904Y-30567380D02*
X85518571Y-31567380D01*
X85518571Y-30567380D02*
X84851904Y-31567380D01*
X86328095Y-30900714D02*
X86328095Y-31567380D01*
X86090000Y-30519761D02*
X85851904Y-31234047D01*
X86470952Y-31234047D01*
X102854285Y-31567380D02*
X102854285Y-30567380D01*
X103187619Y-31281666D01*
X103520952Y-30567380D01*
X103520952Y-31567380D01*
X103901904Y-30567380D02*
X104568571Y-31567380D01*
X104568571Y-30567380D02*
X103901904Y-31567380D01*
X105425714Y-30567380D02*
X104949523Y-30567380D01*
X104901904Y-31043571D01*
X104949523Y-30995952D01*
X105044761Y-30948333D01*
X105282857Y-30948333D01*
X105378095Y-30995952D01*
X105425714Y-31043571D01*
X105473333Y-31138809D01*
X105473333Y-31376904D01*
X105425714Y-31472142D01*
X105378095Y-31519761D01*
X105282857Y-31567380D01*
X105044761Y-31567380D01*
X104949523Y-31519761D01*
X104901904Y-31472142D01*
X26654285Y-50617380D02*
X26654285Y-49617380D01*
X26987619Y-50331666D01*
X27320952Y-49617380D01*
X27320952Y-50617380D01*
X27701904Y-49617380D02*
X28368571Y-50617380D01*
X28368571Y-49617380D02*
X27701904Y-50617380D01*
X29178095Y-49617380D02*
X28987619Y-49617380D01*
X28892380Y-49665000D01*
X28844761Y-49712619D01*
X28749523Y-49855476D01*
X28701904Y-50045952D01*
X28701904Y-50426904D01*
X28749523Y-50522142D01*
X28797142Y-50569761D01*
X28892380Y-50617380D01*
X29082857Y-50617380D01*
X29178095Y-50569761D01*
X29225714Y-50522142D01*
X29273333Y-50426904D01*
X29273333Y-50188809D01*
X29225714Y-50093571D01*
X29178095Y-50045952D01*
X29082857Y-49998333D01*
X28892380Y-49998333D01*
X28797142Y-50045952D01*
X28749523Y-50093571D01*
X28701904Y-50188809D01*
X45704285Y-50617380D02*
X45704285Y-49617380D01*
X46037619Y-50331666D01*
X46370952Y-49617380D01*
X46370952Y-50617380D01*
X46751904Y-49617380D02*
X47418571Y-50617380D01*
X47418571Y-49617380D02*
X46751904Y-50617380D01*
X47704285Y-49617380D02*
X48370952Y-49617380D01*
X47942380Y-50617380D01*
X64754285Y-50617380D02*
X64754285Y-49617380D01*
X65087619Y-50331666D01*
X65420952Y-49617380D01*
X65420952Y-50617380D01*
X65801904Y-49617380D02*
X66468571Y-50617380D01*
X66468571Y-49617380D02*
X65801904Y-50617380D01*
X66992380Y-50045952D02*
X66897142Y-49998333D01*
X66849523Y-49950714D01*
X66801904Y-49855476D01*
X66801904Y-49807857D01*
X66849523Y-49712619D01*
X66897142Y-49665000D01*
X66992380Y-49617380D01*
X67182857Y-49617380D01*
X67278095Y-49665000D01*
X67325714Y-49712619D01*
X67373333Y-49807857D01*
X67373333Y-49855476D01*
X67325714Y-49950714D01*
X67278095Y-49998333D01*
X67182857Y-50045952D01*
X66992380Y-50045952D01*
X66897142Y-50093571D01*
X66849523Y-50141190D01*
X66801904Y-50236428D01*
X66801904Y-50426904D01*
X66849523Y-50522142D01*
X66897142Y-50569761D01*
X66992380Y-50617380D01*
X67182857Y-50617380D01*
X67278095Y-50569761D01*
X67325714Y-50522142D01*
X67373333Y-50426904D01*
X67373333Y-50236428D01*
X67325714Y-50141190D01*
X67278095Y-50093571D01*
X67182857Y-50045952D01*
X83804285Y-50617380D02*
X83804285Y-49617380D01*
X84137619Y-50331666D01*
X84470952Y-49617380D01*
X84470952Y-50617380D01*
X84851904Y-49617380D02*
X85518571Y-50617380D01*
X85518571Y-49617380D02*
X84851904Y-50617380D01*
X85947142Y-50617380D02*
X86137619Y-50617380D01*
X86232857Y-50569761D01*
X86280476Y-50522142D01*
X86375714Y-50379285D01*
X86423333Y-50188809D01*
X86423333Y-49807857D01*
X86375714Y-49712619D01*
X86328095Y-49665000D01*
X86232857Y-49617380D01*
X86042380Y-49617380D01*
X85947142Y-49665000D01*
X85899523Y-49712619D01*
X85851904Y-49807857D01*
X85851904Y-50045952D01*
X85899523Y-50141190D01*
X85947142Y-50188809D01*
X86042380Y-50236428D01*
X86232857Y-50236428D01*
X86328095Y-50188809D01*
X86375714Y-50141190D01*
X86423333Y-50045952D01*
X102378095Y-50617380D02*
X102378095Y-49617380D01*
X102711428Y-50331666D01*
X103044761Y-49617380D01*
X103044761Y-50617380D01*
X103425714Y-49617380D02*
X104092380Y-50617380D01*
X104092380Y-49617380D02*
X103425714Y-50617380D01*
X104997142Y-50617380D02*
X104425714Y-50617380D01*
X104711428Y-50617380D02*
X104711428Y-49617380D01*
X104616190Y-49760238D01*
X104520952Y-49855476D01*
X104425714Y-49903095D01*
X105616190Y-49617380D02*
X105711428Y-49617380D01*
X105806666Y-49665000D01*
X105854285Y-49712619D01*
X105901904Y-49807857D01*
X105949523Y-49998333D01*
X105949523Y-50236428D01*
X105901904Y-50426904D01*
X105854285Y-50522142D01*
X105806666Y-50569761D01*
X105711428Y-50617380D01*
X105616190Y-50617380D01*
X105520952Y-50569761D01*
X105473333Y-50522142D01*
X105425714Y-50426904D01*
X105378095Y-50236428D01*
X105378095Y-49998333D01*
X105425714Y-49807857D01*
X105473333Y-49712619D01*
X105520952Y-49665000D01*
X105616190Y-49617380D01*
X26178095Y-69667380D02*
X26178095Y-68667380D01*
X26511428Y-69381666D01*
X26844761Y-68667380D01*
X26844761Y-69667380D01*
X27225714Y-68667380D02*
X27892380Y-69667380D01*
X27892380Y-68667380D02*
X27225714Y-69667380D01*
X28797142Y-69667380D02*
X28225714Y-69667380D01*
X28511428Y-69667380D02*
X28511428Y-68667380D01*
X28416190Y-68810238D01*
X28320952Y-68905476D01*
X28225714Y-68953095D01*
X29749523Y-69667380D02*
X29178095Y-69667380D01*
X29463809Y-69667380D02*
X29463809Y-68667380D01*
X29368571Y-68810238D01*
X29273333Y-68905476D01*
X29178095Y-68953095D01*
X45228095Y-69667380D02*
X45228095Y-68667380D01*
X45561428Y-69381666D01*
X45894761Y-68667380D01*
X45894761Y-69667380D01*
X46275714Y-68667380D02*
X46942380Y-69667380D01*
X46942380Y-68667380D02*
X46275714Y-69667380D01*
X47847142Y-69667380D02*
X47275714Y-69667380D01*
X47561428Y-69667380D02*
X47561428Y-68667380D01*
X47466190Y-68810238D01*
X47370952Y-68905476D01*
X47275714Y-68953095D01*
X48228095Y-68762619D02*
X48275714Y-68715000D01*
X48370952Y-68667380D01*
X48609047Y-68667380D01*
X48704285Y-68715000D01*
X48751904Y-68762619D01*
X48799523Y-68857857D01*
X48799523Y-68953095D01*
X48751904Y-69095952D01*
X48180476Y-69667380D01*
X48799523Y-69667380D01*
X64278095Y-69667380D02*
X64278095Y-68667380D01*
X64611428Y-69381666D01*
X64944761Y-68667380D01*
X64944761Y-69667380D01*
X65325714Y-68667380D02*
X65992380Y-69667380D01*
X65992380Y-68667380D02*
X65325714Y-69667380D01*
X66897142Y-69667380D02*
X66325714Y-69667380D01*
X66611428Y-69667380D02*
X66611428Y-68667380D01*
X66516190Y-68810238D01*
X66420952Y-68905476D01*
X66325714Y-68953095D01*
X67230476Y-68667380D02*
X67849523Y-68667380D01*
X67516190Y-69048333D01*
X67659047Y-69048333D01*
X67754285Y-69095952D01*
X67801904Y-69143571D01*
X67849523Y-69238809D01*
X67849523Y-69476904D01*
X67801904Y-69572142D01*
X67754285Y-69619761D01*
X67659047Y-69667380D01*
X67373333Y-69667380D01*
X67278095Y-69619761D01*
X67230476Y-69572142D01*
X83328095Y-69667380D02*
X83328095Y-68667380D01*
X83661428Y-69381666D01*
X83994761Y-68667380D01*
X83994761Y-69667380D01*
X84375714Y-68667380D02*
X85042380Y-69667380D01*
X85042380Y-68667380D02*
X84375714Y-69667380D01*
X85947142Y-69667380D02*
X85375714Y-69667380D01*
X85661428Y-69667380D02*
X85661428Y-68667380D01*
X85566190Y-68810238D01*
X85470952Y-68905476D01*
X85375714Y-68953095D01*
X86804285Y-69000714D02*
X86804285Y-69667380D01*
X86566190Y-68619761D02*
X86328095Y-69334047D01*
X86947142Y-69334047D01*
X102378095Y-69667380D02*
X102378095Y-68667380D01*
X102711428Y-69381666D01*
X103044761Y-68667380D01*
X103044761Y-69667380D01*
X103425714Y-68667380D02*
X104092380Y-69667380D01*
X104092380Y-68667380D02*
X103425714Y-69667380D01*
X104997142Y-69667380D02*
X104425714Y-69667380D01*
X104711428Y-69667380D02*
X104711428Y-68667380D01*
X104616190Y-68810238D01*
X104520952Y-68905476D01*
X104425714Y-68953095D01*
X105901904Y-68667380D02*
X105425714Y-68667380D01*
X105378095Y-69143571D01*
X105425714Y-69095952D01*
X105520952Y-69048333D01*
X105759047Y-69048333D01*
X105854285Y-69095952D01*
X105901904Y-69143571D01*
X105949523Y-69238809D01*
X105949523Y-69476904D01*
X105901904Y-69572142D01*
X105854285Y-69619761D01*
X105759047Y-69667380D01*
X105520952Y-69667380D01*
X105425714Y-69619761D01*
X105378095Y-69572142D01*
X26178095Y-88717380D02*
X26178095Y-87717380D01*
X26511428Y-88431666D01*
X26844761Y-87717380D01*
X26844761Y-88717380D01*
X27225714Y-87717380D02*
X27892380Y-88717380D01*
X27892380Y-87717380D02*
X27225714Y-88717380D01*
X28797142Y-88717380D02*
X28225714Y-88717380D01*
X28511428Y-88717380D02*
X28511428Y-87717380D01*
X28416190Y-87860238D01*
X28320952Y-87955476D01*
X28225714Y-88003095D01*
X29654285Y-87717380D02*
X29463809Y-87717380D01*
X29368571Y-87765000D01*
X29320952Y-87812619D01*
X29225714Y-87955476D01*
X29178095Y-88145952D01*
X29178095Y-88526904D01*
X29225714Y-88622142D01*
X29273333Y-88669761D01*
X29368571Y-88717380D01*
X29559047Y-88717380D01*
X29654285Y-88669761D01*
X29701904Y-88622142D01*
X29749523Y-88526904D01*
X29749523Y-88288809D01*
X29701904Y-88193571D01*
X29654285Y-88145952D01*
X29559047Y-88098333D01*
X29368571Y-88098333D01*
X29273333Y-88145952D01*
X29225714Y-88193571D01*
X29178095Y-88288809D01*
X45228095Y-88717380D02*
X45228095Y-87717380D01*
X45561428Y-88431666D01*
X45894761Y-87717380D01*
X45894761Y-88717380D01*
X46275714Y-87717380D02*
X46942380Y-88717380D01*
X46942380Y-87717380D02*
X46275714Y-88717380D01*
X47847142Y-88717380D02*
X47275714Y-88717380D01*
X47561428Y-88717380D02*
X47561428Y-87717380D01*
X47466190Y-87860238D01*
X47370952Y-87955476D01*
X47275714Y-88003095D01*
X48180476Y-87717380D02*
X48847142Y-87717380D01*
X48418571Y-88717380D01*
X64278095Y-88717380D02*
X64278095Y-87717380D01*
X64611428Y-88431666D01*
X64944761Y-87717380D01*
X64944761Y-88717380D01*
X65325714Y-87717380D02*
X65992380Y-88717380D01*
X65992380Y-87717380D02*
X65325714Y-88717380D01*
X66897142Y-88717380D02*
X66325714Y-88717380D01*
X66611428Y-88717380D02*
X66611428Y-87717380D01*
X66516190Y-87860238D01*
X66420952Y-87955476D01*
X66325714Y-88003095D01*
X67468571Y-88145952D02*
X67373333Y-88098333D01*
X67325714Y-88050714D01*
X67278095Y-87955476D01*
X67278095Y-87907857D01*
X67325714Y-87812619D01*
X67373333Y-87765000D01*
X67468571Y-87717380D01*
X67659047Y-87717380D01*
X67754285Y-87765000D01*
X67801904Y-87812619D01*
X67849523Y-87907857D01*
X67849523Y-87955476D01*
X67801904Y-88050714D01*
X67754285Y-88098333D01*
X67659047Y-88145952D01*
X67468571Y-88145952D01*
X67373333Y-88193571D01*
X67325714Y-88241190D01*
X67278095Y-88336428D01*
X67278095Y-88526904D01*
X67325714Y-88622142D01*
X67373333Y-88669761D01*
X67468571Y-88717380D01*
X67659047Y-88717380D01*
X67754285Y-88669761D01*
X67801904Y-88622142D01*
X67849523Y-88526904D01*
X67849523Y-88336428D01*
X67801904Y-88241190D01*
X67754285Y-88193571D01*
X67659047Y-88145952D01*
X83328095Y-88717380D02*
X83328095Y-87717380D01*
X83661428Y-88431666D01*
X83994761Y-87717380D01*
X83994761Y-88717380D01*
X84375714Y-87717380D02*
X85042380Y-88717380D01*
X85042380Y-87717380D02*
X84375714Y-88717380D01*
X85947142Y-88717380D02*
X85375714Y-88717380D01*
X85661428Y-88717380D02*
X85661428Y-87717380D01*
X85566190Y-87860238D01*
X85470952Y-87955476D01*
X85375714Y-88003095D01*
X86423333Y-88717380D02*
X86613809Y-88717380D01*
X86709047Y-88669761D01*
X86756666Y-88622142D01*
X86851904Y-88479285D01*
X86899523Y-88288809D01*
X86899523Y-87907857D01*
X86851904Y-87812619D01*
X86804285Y-87765000D01*
X86709047Y-87717380D01*
X86518571Y-87717380D01*
X86423333Y-87765000D01*
X86375714Y-87812619D01*
X86328095Y-87907857D01*
X86328095Y-88145952D01*
X86375714Y-88241190D01*
X86423333Y-88288809D01*
X86518571Y-88336428D01*
X86709047Y-88336428D01*
X86804285Y-88288809D01*
X86851904Y-88241190D01*
X86899523Y-88145952D01*
X102378095Y-88717380D02*
X102378095Y-87717380D01*
X102711428Y-88431666D01*
X103044761Y-87717380D01*
X103044761Y-88717380D01*
X103425714Y-87717380D02*
X104092380Y-88717380D01*
X104092380Y-87717380D02*
X103425714Y-88717380D01*
X104425714Y-87812619D02*
X104473333Y-87765000D01*
X104568571Y-87717380D01*
X104806666Y-87717380D01*
X104901904Y-87765000D01*
X104949523Y-87812619D01*
X104997142Y-87907857D01*
X104997142Y-88003095D01*
X104949523Y-88145952D01*
X104378095Y-88717380D01*
X104997142Y-88717380D01*
X105616190Y-87717380D02*
X105711428Y-87717380D01*
X105806666Y-87765000D01*
X105854285Y-87812619D01*
X105901904Y-87907857D01*
X105949523Y-88098333D01*
X105949523Y-88336428D01*
X105901904Y-88526904D01*
X105854285Y-88622142D01*
X105806666Y-88669761D01*
X105711428Y-88717380D01*
X105616190Y-88717380D01*
X105520952Y-88669761D01*
X105473333Y-88622142D01*
X105425714Y-88526904D01*
X105378095Y-88336428D01*
X105378095Y-88098333D01*
X105425714Y-87907857D01*
X105473333Y-87812619D01*
X105520952Y-87765000D01*
X105616190Y-87717380D01*
X26178095Y-107767380D02*
X26178095Y-106767380D01*
X26511428Y-107481666D01*
X26844761Y-106767380D01*
X26844761Y-107767380D01*
X27225714Y-106767380D02*
X27892380Y-107767380D01*
X27892380Y-106767380D02*
X27225714Y-107767380D01*
X28225714Y-106862619D02*
X28273333Y-106815000D01*
X28368571Y-106767380D01*
X28606666Y-106767380D01*
X28701904Y-106815000D01*
X28749523Y-106862619D01*
X28797142Y-106957857D01*
X28797142Y-107053095D01*
X28749523Y-107195952D01*
X28178095Y-107767380D01*
X28797142Y-107767380D01*
X29749523Y-107767380D02*
X29178095Y-107767380D01*
X29463809Y-107767380D02*
X29463809Y-106767380D01*
X29368571Y-106910238D01*
X29273333Y-107005476D01*
X29178095Y-107053095D01*
X45228095Y-107767380D02*
X45228095Y-106767380D01*
X45561428Y-107481666D01*
X45894761Y-106767380D01*
X45894761Y-107767380D01*
X46275714Y-106767380D02*
X46942380Y-107767380D01*
X46942380Y-106767380D02*
X46275714Y-107767380D01*
X47275714Y-106862619D02*
X47323333Y-106815000D01*
X47418571Y-106767380D01*
X47656666Y-106767380D01*
X47751904Y-106815000D01*
X47799523Y-106862619D01*
X47847142Y-106957857D01*
X47847142Y-107053095D01*
X47799523Y-107195952D01*
X47228095Y-107767380D01*
X47847142Y-107767380D01*
X48228095Y-106862619D02*
X48275714Y-106815000D01*
X48370952Y-106767380D01*
X48609047Y-106767380D01*
X48704285Y-106815000D01*
X48751904Y-106862619D01*
X48799523Y-106957857D01*
X48799523Y-107053095D01*
X48751904Y-107195952D01*
X48180476Y-107767380D01*
X48799523Y-107767380D01*
X64278095Y-107767380D02*
X64278095Y-106767380D01*
X64611428Y-107481666D01*
X64944761Y-106767380D01*
X64944761Y-107767380D01*
X65325714Y-106767380D02*
X65992380Y-107767380D01*
X65992380Y-106767380D02*
X65325714Y-107767380D01*
X66325714Y-106862619D02*
X66373333Y-106815000D01*
X66468571Y-106767380D01*
X66706666Y-106767380D01*
X66801904Y-106815000D01*
X66849523Y-106862619D01*
X66897142Y-106957857D01*
X66897142Y-107053095D01*
X66849523Y-107195952D01*
X66278095Y-107767380D01*
X66897142Y-107767380D01*
X67230476Y-106767380D02*
X67849523Y-106767380D01*
X67516190Y-107148333D01*
X67659047Y-107148333D01*
X67754285Y-107195952D01*
X67801904Y-107243571D01*
X67849523Y-107338809D01*
X67849523Y-107576904D01*
X67801904Y-107672142D01*
X67754285Y-107719761D01*
X67659047Y-107767380D01*
X67373333Y-107767380D01*
X67278095Y-107719761D01*
X67230476Y-107672142D01*
X83328095Y-107767380D02*
X83328095Y-106767380D01*
X83661428Y-107481666D01*
X83994761Y-106767380D01*
X83994761Y-107767380D01*
X84375714Y-106767380D02*
X85042380Y-107767380D01*
X85042380Y-106767380D02*
X84375714Y-107767380D01*
X85375714Y-106862619D02*
X85423333Y-106815000D01*
X85518571Y-106767380D01*
X85756666Y-106767380D01*
X85851904Y-106815000D01*
X85899523Y-106862619D01*
X85947142Y-106957857D01*
X85947142Y-107053095D01*
X85899523Y-107195952D01*
X85328095Y-107767380D01*
X85947142Y-107767380D01*
X86804285Y-107100714D02*
X86804285Y-107767380D01*
X86566190Y-106719761D02*
X86328095Y-107434047D01*
X86947142Y-107434047D01*
X102378095Y-107767380D02*
X102378095Y-106767380D01*
X102711428Y-107481666D01*
X103044761Y-106767380D01*
X103044761Y-107767380D01*
X103425714Y-106767380D02*
X104092380Y-107767380D01*
X104092380Y-106767380D02*
X103425714Y-107767380D01*
X104425714Y-106862619D02*
X104473333Y-106815000D01*
X104568571Y-106767380D01*
X104806666Y-106767380D01*
X104901904Y-106815000D01*
X104949523Y-106862619D01*
X104997142Y-106957857D01*
X104997142Y-107053095D01*
X104949523Y-107195952D01*
X104378095Y-107767380D01*
X104997142Y-107767380D01*
X105901904Y-106767380D02*
X105425714Y-106767380D01*
X105378095Y-107243571D01*
X105425714Y-107195952D01*
X105520952Y-107148333D01*
X105759047Y-107148333D01*
X105854285Y-107195952D01*
X105901904Y-107243571D01*
X105949523Y-107338809D01*
X105949523Y-107576904D01*
X105901904Y-107672142D01*
X105854285Y-107719761D01*
X105759047Y-107767380D01*
X105520952Y-107767380D01*
X105425714Y-107719761D01*
X105378095Y-107672142D01*
M02*
