M48
;DRILL file {KiCad (5.0.0)} date 08/30/18 21:29:29
;FORMAT={-:-/ absolute / inch / decimal}
FMAT,2
INCH,TZ
T1C0.0157
T2C0.0276
T3C0.0315
T4C0.0390
T5C0.0409
T6C0.0430
T7C0.0579
T8C0.0984
T9C0.0670
T10C0.1570
%
G90
G05
M72
T1
X0.7494Y-1.7944
X0.755Y-2.33
X0.81Y-0.83
X0.82Y-1.7944
X0.82Y-3.09
X0.86Y-4.37
X0.88Y-2.06
X0.89Y-1.67
X0.9Y-1.5
X0.906Y-1.9764
X0.9755Y-0.7765
X1.05Y-2.89
X1.12Y-1.7
X1.23Y-3.28
X1.29Y-1.7
X1.33Y-2.785
X1.3368Y-4.347
X1.34Y-2.27
X1.36Y-3.26
X1.456Y-3.238
X1.466Y-3.502
X1.475Y-2.97
X1.476Y-1.8
X1.485Y-0.775
X1.51Y-2.79
X1.55Y-1.05
X1.58Y-2.96
X1.585Y-2.825
X1.5894Y-4.2558
X1.59Y-1.92
X1.59Y-2.11
X1.59Y-3.28
X1.6078Y-3.035
X1.618Y-1.55
X1.64Y-3.44
X1.64Y-3.84
X1.645Y-1.94
X1.65Y-3.66
X1.66Y-1.45
X1.6654Y-4.3426
X1.74Y-1.51
X1.8Y-2.89
X1.84Y-3.11
X1.86Y-0.73
X1.905Y-1.955
X1.922Y-1.479
X1.9254Y-1.1938
X1.93Y-1.56
X1.965Y-0.78
X1.97Y-2.18
X1.985Y-1.02
X2.01Y-0.86
X2.02Y-1.2
X2.02Y-1.33
X2.0348Y-4.264
X2.0355Y-1.9805
X2.0388Y-1.51
X2.04Y-1.025
X2.045Y-0.795
X2.0548Y-2.8476
X2.07Y-1.19
X2.07Y-3.01
X2.075Y-0.87
X2.075Y-0.98
X2.09Y-1.655
X2.11Y-0.76
X2.1105Y-2.315
X2.1126Y-4.341
X2.115Y-1.79
X2.14Y-0.8
X2.15Y-0.995
X2.15Y-1.29
X2.1595Y-1.9905
X2.167Y-2.573
X2.17Y-2.89
X2.225Y-2.221
X2.23Y-0.84
X2.23Y-3.81
X2.25Y-3.31
X2.25Y-3.43
X2.2545Y-2.128
X2.316Y-4.255
X2.32Y-3.04
X2.32Y-3.09
X2.33Y-2.96
X2.357Y-2.3695
X2.359Y-2.093
X2.37Y-1.98
X2.401Y-1.3605
X2.4028Y-4.3382
X2.48Y-1.61
X2.48Y-3.03
X2.48Y-3.51
X2.55Y-2.88
X2.6Y-0.77
X2.6Y-0.99
X2.6Y-3.09
X2.614Y-1.4415
X2.655Y-0.755
X2.71Y-1.96
X2.74Y-1.04
X2.78Y-0.73
X2.79Y-3.52
X2.8Y-2.48
X2.81Y-1.96
X2.815Y-0.805
X2.8452Y-4.3414
X2.92Y-3.25
X2.93Y-2.88
X2.96Y-2.305
X2.97Y-1.
X3.025Y-2.245
X3.05Y-3.48
X3.09Y-3.44
X3.12Y-0.82
X3.125Y-1.035
X3.169Y-4.3388
X3.17Y-0.76
X3.23Y-2.11
X3.24Y-3.1
X3.2762Y-2.9608
X3.28Y-3.44
X3.34Y-0.74
X3.3504Y-3.0832
X3.52Y-1.5
X3.5242Y-1.7491
X3.5494Y-1.2558
X3.5706Y-4.3404
X3.5765Y-2.9515
X3.587Y-2.305
X3.61Y-2.05
X3.65Y-1.36
X3.6675Y-4.054
X3.68Y-2.05
X3.716Y-3.556
X3.72Y-1.772
X3.73Y-3.49
X3.74Y-2.95
X3.74Y-3.242
X3.77Y-2.78
X3.78Y-1.205
X3.8Y-2.95
X3.8Y-3.01
X3.82Y-3.49
X3.84Y-1.93
X3.886Y-2.367
X3.8875Y-1.545
X3.898Y-2.906
X3.92Y-0.81
X3.98Y-1.16
X4.015Y-3.0645
X4.0338Y-3.6936
X4.09Y-3.01
X4.31Y-2.96
T2
X3.225Y-3.675
X3.525Y-3.675
X3.025Y-4.075
X3.025Y-4.375
X0.875Y-2.175
X1.175Y-2.175
X3.075Y-1.425
X3.375Y-1.425
X3.125Y-2.925
X3.425Y-2.925
X1.6Y-2.175
X1.9Y-2.175
X2.275Y-4.075
X2.275Y-4.375
X3.775Y-4.075
X3.775Y-4.375
X3.875Y-3.675
X4.175Y-3.675
X1.775Y-1.425
X2.075Y-1.425
X3.02Y-2.59
X3.02Y-2.89
X2.175Y-1.35
X2.175Y-1.65
X0.77Y-4.04
X0.77Y-4.34
X1.775Y-3.675
X2.075Y-3.675
X2.27Y-2.58
X2.27Y-2.88
X2.35Y-3.675
X2.65Y-3.675
X3.35Y-2.175
X3.65Y-2.175
X1.51Y-2.58
X1.51Y-2.88
X0.875Y-1.425
X1.175Y-1.425
X0.875Y-3.675
X1.175Y-3.675
X1.525Y-4.075
X1.525Y-4.375
X2.175Y-1.8
X2.175Y-2.1
X3.775Y-1.
X3.775Y-1.3
X3.875Y-2.175
X4.175Y-2.175
X3.77Y-2.58
X3.77Y-2.88
X3.025Y-3.075
X3.025Y-3.375
X2.375Y-2.175
X2.675Y-2.175
T3
X0.7864Y-2.9789
X0.8848Y-2.9789
T4
X3.125Y-3.025
X3.425Y-3.025
X2.925Y-3.15
X2.925Y-3.45
X4.42Y-1.67
X4.42Y-1.97
X1.6Y-2.275
X1.9Y-2.275
X3.875Y-3.775
X4.175Y-3.775
X1.06Y-3.02
X1.36Y-3.02
X2.375Y-2.275
X2.675Y-2.275
X3.675Y-0.9
X3.675Y-1.2
X4.42Y-3.16
X4.42Y-3.46
X3.675Y-3.925
X3.675Y-4.225
X3.675Y-2.425
X3.675Y-2.725
X3.025Y-1.675
X3.025Y-1.975
X4.025Y-1.425
X4.325Y-1.425
X2.175Y-3.15
X2.175Y-3.45
X1.425Y-3.925
X1.425Y-4.225
X0.78Y-1.67
X0.78Y-1.97
X1.425Y-2.425
X1.425Y-2.725
X2.92Y-2.43
X2.92Y-2.73
X4.425Y-2.425
X4.425Y-2.725
X2.175Y-0.9
X2.175Y-1.2
X2.175Y-3.925
X2.175Y-4.225
X1.425Y-0.9
X1.425Y-1.2
X2.925Y-3.925
X2.925Y-4.225
X2.175Y-2.425
X2.175Y-2.725
X3.025Y-0.9
X3.025Y-1.2
T5
X3.3Y-2.05
X3.4Y-2.05
X1.8Y-2.05
X1.9Y-2.05
X1.8Y-1.3
X1.9Y-1.3
X2.55Y-3.55
X2.65Y-3.55
X2.55Y-2.05
X2.65Y-2.05
X2.55Y-2.8
X2.65Y-2.8
X3.3Y-2.8
X3.4Y-2.8
X2.55Y-4.3
X2.65Y-4.3
X3.3Y-4.3
X3.4Y-4.3
X4.05Y-2.8
X4.15Y-2.8
X4.05Y-1.3
X4.15Y-1.3
X1.05Y-2.05
X1.15Y-2.05
X1.05Y-1.3
X1.15Y-1.3
X1.05Y-2.8
X1.15Y-2.8
X1.05Y-3.55
X1.15Y-3.55
X1.8Y-4.3
X1.9Y-4.3
X4.05Y-4.3
X4.15Y-4.3
X3.3Y-3.55
X3.4Y-3.55
X1.8Y-2.8
X1.9Y-2.8
X1.05Y-4.3
X1.15Y-4.3
X3.3Y-1.3
X3.4Y-1.3
X1.8Y-3.55
X1.9Y-3.55
X4.05Y-2.05
X4.15Y-2.05
X4.05Y-3.55
X4.15Y-3.55
X2.55Y-1.3
X2.65Y-1.3
T6
X2.3Y-0.825
X2.3Y-0.925
X2.3Y-1.025
X2.3Y-1.125
X2.3Y-1.225
X2.3Y-1.325
X2.3Y-1.425
X2.3Y-1.525
X2.3Y-1.625
X2.3Y-1.725
X2.3Y-1.825
X2.3Y-1.925
X2.9Y-0.825
X2.9Y-0.925
X2.9Y-1.025
X2.9Y-1.125
X2.9Y-1.225
X2.9Y-1.325
X2.9Y-1.425
X2.9Y-1.525
X2.9Y-1.625
X2.9Y-1.725
X2.9Y-1.825
X2.9Y-1.925
T7
X3.95Y-2.5
X4.0016Y-2.4425
X4.1984Y-2.4228
X4.2Y-2.4
X3.95Y-1.
X4.0016Y-0.9425
X4.1984Y-0.9228
X4.2Y-0.9
X0.95Y-1.75
X1.0016Y-1.6925
X1.1984Y-1.6728
X1.2Y-1.65
X0.95Y-1.
X1.0016Y-0.9425
X1.1984Y-0.9228
X1.2Y-0.9
X0.95Y-2.5
X1.0016Y-2.4425
X1.1984Y-2.4228
X1.2Y-2.4
X0.95Y-3.25
X1.0016Y-3.1925
X1.1984Y-3.1728
X1.2Y-3.15
X1.7Y-4.
X1.7516Y-3.9425
X1.9484Y-3.9228
X1.95Y-3.9
X3.95Y-4.
X4.0016Y-3.9425
X4.1984Y-3.9228
X4.2Y-3.9
X3.2Y-3.25
X3.2516Y-3.1925
X3.4484Y-3.1728
X3.45Y-3.15
X1.7Y-2.5
X1.7516Y-2.4425
X1.9484Y-2.4228
X1.95Y-2.4
X0.95Y-4.
X1.0016Y-3.9425
X1.1984Y-3.9228
X1.2Y-3.9
X3.2Y-1.
X3.2516Y-0.9425
X3.4484Y-0.9228
X3.45Y-0.9
X1.7Y-3.25
X1.7516Y-3.1925
X1.9484Y-3.1728
X1.95Y-3.15
X3.95Y-1.75
X4.0016Y-1.6925
X4.1984Y-1.6728
X4.2Y-1.65
X3.95Y-3.25
X4.0016Y-3.1925
X4.1984Y-3.1728
X4.2Y-3.15
X2.45Y-1.
X2.5016Y-0.9425
X2.6984Y-0.9228
X2.7Y-0.9
X3.2Y-1.75
X3.2516Y-1.6925
X3.4484Y-1.6728
X3.45Y-1.65
X1.7Y-1.75
X1.7516Y-1.6925
X1.9484Y-1.6728
X1.95Y-1.65
X1.7Y-1.
X1.7516Y-0.9425
X1.9484Y-0.9228
X1.95Y-0.9
X2.45Y-3.25
X2.5016Y-3.1925
X2.6984Y-3.1728
X2.7Y-3.15
X2.45Y-1.75
X2.5016Y-1.6925
X2.6984Y-1.6728
X2.7Y-1.65
X2.45Y-2.5
X2.5016Y-2.4425
X2.6984Y-2.4228
X2.7Y-2.4
X3.2Y-2.5
X3.2516Y-2.4425
X3.4484Y-2.4228
X3.45Y-2.4
X2.45Y-4.
X2.5016Y-3.9425
X2.6984Y-3.9228
X2.7Y-3.9
X3.2Y-4.
X3.2516Y-3.9425
X3.4484Y-3.9228
X3.45Y-3.9
T8
X3.725Y-3.725
X3.725Y-1.475
X1.475Y-1.475
X1.475Y-3.725
T9
X2.4Y-3.35
X2.8Y-3.35
X2.4Y-1.85
X2.8Y-1.85
X2.4Y-2.6
X2.8Y-2.6
X3.15Y-2.6
X3.55Y-2.6
X2.4Y-4.1
X2.8Y-4.1
X3.15Y-4.1
X3.55Y-4.1
X3.9Y-2.6
X4.3Y-2.6
X3.9Y-1.1
X4.3Y-1.1
X0.9Y-1.85
X1.3Y-1.85
X0.9Y-1.1
X1.3Y-1.1
X0.9Y-2.6
X1.3Y-2.6
X0.9Y-3.35
X1.3Y-3.35
X1.65Y-4.1
X2.05Y-4.1
X3.9Y-4.1
X4.3Y-4.1
X3.15Y-3.35
X3.55Y-3.35
X1.65Y-2.6
X2.05Y-2.6
X0.9Y-4.1
X1.3Y-4.1
X3.15Y-1.1
X3.55Y-1.1
X1.65Y-3.35
X2.05Y-3.35
X3.9Y-1.85
X4.3Y-1.85
X3.9Y-3.35
X4.3Y-3.35
X2.4Y-1.1
X2.8Y-1.1
X3.15Y-1.85
X3.55Y-1.85
X1.65Y-1.85
X2.05Y-1.85
X1.65Y-1.1
X2.05Y-1.1
T10
X1.1Y-2.6
X1.1Y-3.35
X1.85Y-4.1
X4.1Y-4.1
X3.35Y-3.35
X1.85Y-2.6
X1.1Y-4.1
X3.35Y-1.1
X1.85Y-3.35
X4.1Y-1.85
X4.1Y-3.35
X2.6Y-1.1
X3.35Y-1.85
X1.85Y-1.85
X1.85Y-1.1
X2.6Y-3.35
X2.6Y-1.85
X2.6Y-2.6
X3.35Y-2.6
X2.6Y-4.1
X3.35Y-4.1
X4.1Y-2.6
X4.1Y-1.1
X1.1Y-1.85
X1.1Y-1.1
T0
M30
